<?xml version="1.0" encoding="utf-8" standalone="no"?>
<!DOCTYPE svg PUBLIC "-//W3C//DTD SVG 1.1//EN"
  "http://www.w3.org/Graphics/SVG/1.1/DTD/svg11.dtd">
<svg xmlns:xlink="http://www.w3.org/1999/xlink" width="332.64pt" height="332.64pt" viewBox="0 0 332.64 332.64" xmlns="http://www.w3.org/2000/svg" version="1.1">
 <metadata>
  <rdf:RDF xmlns:dc="http://purl.org/dc/elements/1.1/" xmlns:cc="http://creativecommons.org/ns#" xmlns:rdf="http://www.w3.org/1999/02/22-rdf-syntax-ns#">
   <cc:Work>
    <dc:type rdf:resource="http://purl.org/dc/dcmitype/StillImage"/>
    <dc:date>2025-08-19T10:15:21.064644</dc:date>
    <dc:format>image/svg+xml</dc:format>
    <dc:creator>
     <cc:Agent>
      <dc:title>Matplotlib v3.10.5, https://matplotlib.org/</dc:title>
     </cc:Agent>
    </dc:creator>
   </cc:Work>
  </rdf:RDF>
 </metadata>
 <defs>
  <style type="text/css">*{stroke-linejoin: round; stroke-linecap: butt}</style>
 </defs>
 <g id="figure_1">
  <g id="patch_1">
   <path d="M 0 332.64 
L 332.64 332.64 
L 332.64 0 
L 0 0 
L 0 332.64 
z
" style="fill: none; opacity: 0"/>
  </g>
  <g id="axes_1">
   <g id="line2d_1">
    <path d="M 249.48 166.32 
L 255.027798 164.686504 
L 260.511614 162.849869 
L 265.895932 160.814144 
L 271.145785 158.58569 
L 276.227011 156.173133 
L 280.708375 153.809087 
L 284.995682 151.309275 
L 289.065477 148.684971 
L 292.895526 145.948767 
L 296.464962 143.114473 
L 299.754406 140.197018 
L 302.486861 137.486006 
L 304.961096 134.732021 
L 307.166228 131.948184 
L 309.092657 129.148052 
L 310.732123 126.345533 
L 311.956564 123.832929 
L 312.938912 121.340309 
L 313.676051 118.878177 
L 314.165809 116.457035 
L 314.406966 114.087329 
L 314.399252 111.779394 
L 314.183996 109.787981 
L 313.77373 107.86041 
L 313.17014 106.003512 
L 312.375484 104.223921 
L 311.392588 102.528043 
L 310.224825 100.922033 
L 308.876109 99.411763 
L 307.148049 97.83407 
L 305.203674 96.392009 
L 303.05083 95.092431 
L 300.6981 93.941575 
L 298.154756 92.945028 
L 295.43072 92.107696 
L 292.536512 91.43377 
L 289.134626 90.880781 
L 285.552236 90.537391 
L 281.805913 90.406021 
L 277.912802 90.487867 
L 273.890519 90.782881 
L 269.338297 91.352006 
L 264.675875 92.173952 
L 259.927807 93.243374 
L 255.118717 94.553104 
L 250.273132 96.094186 
L 244.973923 98.026603 
L 239.691079 100.205405 
L 234.45469 102.612139 
L 229.293775 105.22621 
L 224.236066 108.025026 
L 218.903725 111.237195 
L 213.754355 114.60429 
L 208.816447 118.091143 
L 203.764546 121.937895 
L 199.015671 125.833188 
L 194.290721 130.005042 
L 189.964176 134.115529 
L 185.807552 138.363544 
L 181.923426 142.64233 
L 178.237198 147.035169 
L 174.821186 151.464202 
L 171.734394 155.83819 
L 169.247553 159.337639 
L 169.167025 159.257772 
L 169.192279 158.76391 
L 169.640197 156.412768 
L 170.656377 150.816398 
L 171.387262 145.521122 
L 171.923062 140.009296 
L 172.251776 134.400426 
L 172.376791 128.59423 
L 172.291424 122.739972 
L 171.976861 116.543049 
L 171.451694 110.501551 
L 170.683378 104.262875 
L 169.73891 98.339448 
L 168.562682 92.335344 
L 167.148837 86.295323 
L 165.494729 80.264736 
L 163.75507 74.745808 
L 161.81409 69.30941 
L 159.677047 63.990807 
L 157.351489 58.82458 
L 155.062433 54.251479 
L 152.63227 49.859736 
L 150.071552 45.673387 
L 147.392193 41.715324 
L 144.607379 38.007144 
L 141.731468 34.569019 
L 139.05091 31.693499 
L 136.320063 29.069377 
L 133.55176 26.708255 
L 130.759319 24.620475 
L 127.956456 22.815075 
L 125.436558 21.438027 
L 122.929962 20.30059 
L 120.447139 19.406479 
L 117.998599 18.758471 
L 115.59483 18.358395 
L 113.246246 18.207127 
L 110.963128 18.304592 
L 108.996815 18.599237 
L 107.097142 19.088277 
L 105.270862 19.769792 
L 103.52452 20.641293 
L 101.864424 21.69973 
L 100.296617 22.941506 
L 98.826851 24.362497 
L 97.297309 26.169527 
L 95.905941 28.190128 
L 94.659382 30.41618 
L 93.563639 32.838848 
L 92.624057 35.448618 
L 91.845287 38.235349 
L 91.173345 41.526198 
L 90.709062 45.006782 
L 90.455555 48.660904 
L 90.414727 52.471736 
L 90.587249 56.421922 
L 90.972536 60.493672 
L 91.639858 65.091371 
L 92.558154 69.789803 
L 93.72137 74.564365 
L 95.121645 79.390452 
L 96.749341 84.243618 
L 98.770989 89.54053 
L 101.032741 94.810312 
L 103.515369 100.023227 
L 106.197552 105.150688 
L 109.056032 110.165472 
L 112.322605 115.441295 
L 115.732808 120.524535 
L 119.250898 125.387602 
L 123.117489 130.350286 
L 127.017891 135.00227 
L 131.178569 139.616445 
L 135.528378 144.092625 
L 139.714609 148.090914 
L 144.137949 152.005368 
L 148.580102 155.628352 
L 152.91153 158.870746 
L 157.530252 162.037127 
L 159.328598 163.366558 
L 159.289966 163.463985 
L 159.252513 163.474006 
L 158.749986 163.44575 
L 156.253727 162.967965 
L 150.548211 161.941209 
L 145.184458 161.213639 
L 139.6179 160.687101 
L 133.964468 160.371385 
L 128.12081 160.262332 
L 122.235872 160.365619 
L 116.012973 160.70061 
L 109.951778 161.246768 
L 103.698037 162.03759 
L 97.764931 163.004001 
L 91.755417 164.202873 
L 85.714326 165.639756 
L 79.687047 167.316987 
L 74.175056 169.077793 
L 68.749293 171.039482 
L 63.444963 173.196553 
L 58.296561 175.541223 
L 53.742825 177.846801 
L 49.373231 180.292357 
L 45.211695 182.867181 
L 41.280965 185.559211 
L 37.602485 188.35512 
L 34.196257 191.240426 
L 31.351486 193.927954 
L 28.759629 196.664195 
L 26.432136 199.436253 
L 24.379187 202.230754 
L 22.609652 205.033939 
L 21.265627 207.552613 
L 20.161784 210.056535 
L 19.30171 212.535225 
L 18.688049 214.978172 
L 18.322498 217.374897 
L 18.205803 219.715 
L 18.337755 221.988222 
L 18.662878 223.944575 
L 19.182133 225.833221 
L 19.893512 227.647436 
L 20.794436 229.380711 
L 21.88177 231.026779 
L 23.151835 232.579638 
L 24.600421 234.033586 
L 26.437572 235.544357 
L 28.487209 236.915995 
L 30.741113 238.141952 
L 33.190351 239.21631 
L 35.82532 240.133819 
L 38.635792 240.889926 
L 41.95122 241.536122 
L 45.454397 241.974204 
L 49.129039 242.201205 
L 52.958249 242.215375 
L 56.924611 242.0162 
L 61.010289 241.604421 
L 65.62067 240.908332 
L 70.328993 239.961866 
L 75.110648 238.771281 
L 79.941039 237.344645 
L 84.795748 235.691793 
L 90.09125 233.644302 
L 95.356478 231.358608 
L 100.561804 228.854163 
L 105.678772 226.152499 
L 111.09109 223.03038 
L 116.335676 219.736467 
L 121.382704 216.304987 
L 126.205075 212.77197 
L 131.119518 208.896669 
L 135.719364 204.995396 
L 140.274182 200.842622 
L 144.684083 196.511358 
L 148.843608 192.101622 
L 152.645958 187.743122 
L 156.145656 183.393577 
L 159.365361 179.032747 
L 163.434028 173.308194 
L 163.474974 173.392912 
L 163.443728 173.904107 
L 162.961508 176.418587 
L 161.966663 181.930395 
L 161.237049 187.253094 
L 160.704908 192.786849 
L 160.381355 198.413585 
L 160.262693 204.234809 
L 160.355201 210.101384 
L 160.677912 216.308746 
L 161.211457 222.358172 
L 161.988761 228.602924 
L 162.941996 234.530272 
L 164.127276 240.536589 
L 165.550333 246.577089 
L 167.213691 252.606403 
L 168.961813 258.122603 
L 170.911084 263.554792 
L 173.056148 268.867731 
L 175.389363 274.026872 
L 177.685043 278.592265 
L 180.121379 282.975186 
L 182.687759 287.151646 
L 185.372206 291.098809 
L 188.161481 294.79514 
L 191.041173 298.220535 
L 193.724543 301.083779 
L 196.457572 303.695017 
L 199.227401 306.042707 
L 202.020692 308.116571 
L 204.82371 309.907639 
L 207.343142 311.271489 
L 209.848694 312.395496 
L 212.329887 313.275999 
L 214.776215 313.910272 
L 217.17719 314.29654 
L 219.522405 314.433979 
L 221.801589 314.322716 
L 223.763938 314.015876 
L 225.65922 313.514744 
L 227.480693 312.821276 
L 229.221826 311.937997 
L 230.876329 310.867991 
L 232.438174 309.614886 
L 233.901628 308.182844 
L 235.423678 306.363748 
L 236.80717 304.331514 
L 238.045502 302.094301 
L 239.132703 299.660983 
L 240.063466 297.041109 
L 240.83318 294.244857 
L 241.494832 290.944147 
L 241.94864 287.454496 
L 242.191548 283.792134 
L 242.221714 279.973918 
L 242.03853 276.017229 
L 241.642642 271.939873 
L 240.963807 267.337063 
L 240.034233 262.634637 
L 238.860057 257.8572 
L 237.449223 253.029353 
L 235.811447 248.175533 
L 233.779439 242.879145 
L 231.508085 237.611146 
L 229.016702 232.401229 
L 226.326696 227.27793 
L 223.21549 221.856898 
L 219.930577 216.6018 
L 216.50607 211.54261 
L 212.977904 206.706593 
L 209.105368 201.775994 
L 205.204244 197.158705 
L 201.048682 192.584049 
L 196.711074 188.152016 
L 192.290825 183.968298 
L 187.917072 180.140076 
L 183.545854 176.611969 
L 179.152987 173.359617 
L 173.309835 169.203512 
L 173.398501 169.16412 
L 173.918368 169.198347 
L 176.451069 169.684979 
L 181.984033 170.68182 
L 187.320426 171.410771 
L 192.865129 171.94106 
L 198.500776 172.262013 
L 204.329493 172.377482 
L 210.202204 172.281391 
L 216.414762 171.954594 
L 222.468126 171.41685 
L 228.715892 170.635046 
L 234.645175 169.677422 
L 240.652575 168.487613 
L 246.693288 167.059948 
L 249.48 166.32 
L 249.48 166.32 
" clip-path="url(#p07a97af2e8)" style="fill: none; stroke: #1f77b4; stroke-width: 3; stroke-linecap: square"/>
   </g>
  </g>
 </g>
 <defs>
  <clipPath id="p07a97af2e8">
   <path d="M 332.64 166.32 
C 332.64 144.479058 328.337811 122.850491 319.979644 102.672092 
C 311.621477 82.493692 299.369878 64.157879 283.926 48.714 
C 268.482121 33.270122 250.146308 21.018523 229.967908 12.660356 
C 209.789509 4.302189 188.160942 -0 166.32 -0 
C 144.479058 -0 122.850491 4.302189 102.672092 12.660356 
C 82.493692 21.018523 64.157879 33.270122 48.714 48.714 
C 33.270122 64.157879 21.018523 82.493692 12.660356 102.672092 
C 4.302189 122.850491 0 144.479058 0 166.32 
C 0 188.160942 4.302189 209.789509 12.660356 229.967908 
C 21.018523 250.146308 33.270122 268.482121 48.714 283.926 
C 64.157879 299.369878 82.493692 311.621477 102.672092 319.979644 
C 122.850491 328.337811 144.479058 332.64 166.32 332.64 
C 188.160942 332.64 209.789509 328.337811 229.967908 319.979644 
C 250.146308 311.621477 268.482121 299.369878 283.926 283.926 
C 299.369878 268.482121 311.621477 250.146308 319.979644 229.967908 
C 328.337811 209.789509 332.64 188.160942 332.64 166.32 
M 166.32 166.32 
C 166.32 166.32 166.32 166.32 166.32 166.32 
C 166.32 166.32 166.32 166.32 166.32 166.32 
C 166.32 166.32 166.32 166.32 166.32 166.32 
C 166.32 166.32 166.32 166.32 166.32 166.32 
C 166.32 166.32 166.32 166.32 166.32 166.32 
C 166.32 166.32 166.32 166.32 166.32 166.32 
C 166.32 166.32 166.32 166.32 166.32 166.32 
C 166.32 166.32 166.32 166.32 166.32 166.32 
C 166.32 166.32 166.32 166.32 166.32 166.32 
C 166.32 166.32 166.32 166.32 166.32 166.32 
C 166.32 166.32 166.32 166.32 166.32 166.32 
C 166.32 166.32 166.32 166.32 166.32 166.32 
C 166.32 166.32 166.32 166.32 166.32 166.32 
C 166.32 166.32 166.32 166.32 166.32 166.32 
C 166.32 166.32 166.32 166.32 166.32 166.32 
C 166.32 166.32 166.32 166.32 166.32 166.32 
z
"/>
  </clipPath>
 </defs>
</svg>
